<svg data-v-423bf9ae="" xmlns="http://www.w3.org/2000/svg" viewBox="0 0 264.8217642054779 60" class="font"><!----><!----><!----><g data-v-423bf9ae="" id="5353e98a-5513-46e2-a782-0b045cd6e51b" fill="black" transform="matrix(5.267779035574817,0,0,5.267779035574817,-2.581214506857634,-18.121160660639262)"><path d="M0.49 14.43L0.49 14.43L0.49 14.01Q0.49 13.80 0.70 13.80L0.70 13.80L0.79 13.80Q1.74 13.75 1.74 12.47L1.74 12.47L1.74 6.32Q1.74 5.03 0.79 4.98L0.79 4.98L0.70 4.98Q0.49 4.98 0.49 4.77L0.49 4.77L0.49 4.35Q0.49 4.14 0.70 4.14L0.70 4.14L5.00 4.14Q5.22 4.14 5.22 4.35L5.22 4.35L5.22 4.77Q5.22 4.98 5.00 4.98L5.00 4.98L4.92 4.98Q3.98 5.03 3.98 6.32L3.98 6.32L3.98 12.47Q3.98 13.75 4.92 13.80L4.92 13.80L5.00 13.80Q5.22 13.80 5.22 14.01L5.22 14.01L5.22 14.43Q5.22 14.64 5.00 14.64L5.00 14.64L0.70 14.64Q0.49 14.64 0.49 14.43ZM5.91 14.43L5.91 14.43L5.91 14.01Q5.91 13.80 6.11 13.80L6.11 13.80L6.15 13.80Q6.64 13.80 6.90 13.43Q7.16 13.06 7.16 12.47L7.16 12.47L7.16 10.71Q7.16 10.37 7.14 10.14Q7.12 9.92 7.04 9.67Q6.97 9.41 6.79 9.27Q6.61 9.13 6.34 9.10L6.34 9.10Q6.16 9.08 6.17 8.92L6.17 8.92L6.17 8.44Q6.17 8.29 6.37 8.26L6.37 8.26Q7.27 8.11 8.03 7.81Q8.78 7.50 9.15 7.24L9.15 7.24Q9.19 7.21 9.21 7.21L9.21 7.21L9.24 7.21Q9.26 7.21 9.26 7.23L9.26 7.23L9.01 9.06Q10.01 7.46 11.43 7.46L11.43 7.46Q12.01 7.46 12.44 7.62Q12.88 7.77 13.14 8.02Q13.39 8.27 13.55 8.64Q13.70 9.00 13.75 9.37Q13.81 9.73 13.81 10.17L13.81 10.17L13.81 12.47Q13.81 13.06 14.08 13.43Q14.34 13.80 14.84 13.80L14.84 13.80L14.90 13.80Q15.11 13.80 15.11 14.01L15.11 14.01L15.11 14.43Q15.11 14.64 14.90 14.64L14.90 14.64L11.10 14.64Q10.89 14.64 10.89 14.43L10.89 14.43L10.89 14.01Q10.89 13.80 11.11 13.80L11.11 13.80Q11.49 13.81 11.68 13.44L11.68 13.44Q11.85 13.10 11.85 12.55L11.85 12.55Q11.85 12.51 11.85 12.47L11.85 12.47L11.85 10.36Q11.85 10.32 11.85 10.25L11.85 10.25Q11.85 10.04 11.85 9.92Q11.85 9.81 11.83 9.62Q11.81 9.43 11.77 9.32Q11.74 9.21 11.66 9.08Q11.59 8.94 11.48 8.87Q11.38 8.80 11.21 8.75Q11.05 8.70 10.83 8.70L10.83 8.70Q10.33 8.70 9.82 9.06Q9.32 9.43 9.13 9.89L9.13 9.89L9.13 12.47Q9.13 13.06 9.40 13.43Q9.67 13.80 10.16 13.80L10.16 13.80L10.19 13.80Q10.40 13.80 10.40 14.01L10.40 14.01L10.40 14.43Q10.40 14.64 10.19 14.64L10.19 14.64L6.11 14.64Q5.91 14.64 5.91 14.43ZM15.67 14.43L15.67 14.43L15.67 14.01Q15.67 13.80 15.88 13.80L15.88 13.80Q16.38 13.80 16.65 13.43L16.65 13.43Q16.89 13.08 16.89 12.53L16.89 12.53Q16.89 12.50 16.89 12.47L16.89 12.47L16.89 10.08Q16.89 9.86 16.89 9.74Q16.88 9.63 16.87 9.43Q16.85 9.24 16.81 9.13Q16.78 9.02 16.70 8.88Q16.63 8.74 16.53 8.66Q16.42 8.59 16.26 8.54Q16.09 8.48 15.88 8.48Q15.67 8.48 15.67 8.27L15.67 8.27L15.67 7.85Q15.67 7.64 15.88 7.64L15.88 7.64L16.92 7.64L16.91 7.53Q16.91 6.99 17.00 6.46Q17.09 5.93 17.32 5.37Q17.55 4.82 17.90 4.40Q18.25 3.98 18.81 3.71Q19.37 3.44 20.08 3.44L20.08 3.44Q21.15 3.44 21.72 3.85Q22.29 4.27 22.29 4.93L22.29 4.93Q22.29 5.25 22.13 5.63L22.13 5.63Q22.05 5.83 21.79 5.89L21.79 5.89L20.32 6.22L20.28 6.23Q20.20 6.23 20.18 6.13Q20.17 6.04 20.22 5.94L20.22 5.94Q20.48 5.44 20.48 5.02L20.48 5.02Q20.48 4.64 20.29 4.42Q20.09 4.20 19.82 4.20L19.82 4.20Q19.48 4.20 19.23 4.52L19.23 4.52Q18.99 4.82 18.89 5.35Q18.79 5.88 18.79 6.73L18.79 6.73L18.79 7.64L20.66 7.64Q20.87 7.64 20.87 7.85L20.87 7.85L20.87 8.46Q20.87 8.67 20.66 8.67L20.66 8.67L18.79 8.67L18.79 12.47Q18.79 13.06 19.06 13.43Q19.33 13.80 19.82 13.80L19.82 13.80Q20.03 13.80 20.03 14.01L20.03 14.01L20.03 14.43Q20.03 14.64 19.82 14.64L19.82 14.64L15.88 14.64Q15.67 14.64 15.67 14.43ZM21.01 11.08L21.01 11.08Q21.01 10.33 21.21 9.71Q21.40 9.10 21.71 8.69Q22.03 8.29 22.47 8.01Q22.90 7.73 23.37 7.61Q23.84 7.49 24.35 7.49L24.35 7.49Q24.88 7.49 25.36 7.67Q25.83 7.85 26.17 8.13Q26.50 8.42 26.75 8.78Q26.99 9.14 27.11 9.50Q27.23 9.86 27.23 10.19L27.23 10.19Q27.23 10.31 27.11 10.36L27.11 10.36L23.05 12.14Q23.32 12.79 23.85 13.22Q24.39 13.64 25.15 13.64L25.15 13.64Q25.62 13.64 26.10 13.38Q26.58 13.13 26.93 12.61L26.93 12.61Q26.97 12.55 27.05 12.55L27.05 12.55Q27.15 12.55 27.61 12.82L27.61 12.82Q27.67 12.86 27.67 12.93L27.67 12.93Q27.67 13.02 27.58 13.18L27.58 13.18Q26.69 14.81 24.77 14.81L24.77 14.81Q23.65 14.81 22.78 14.30Q21.91 13.79 21.46 12.94Q21.01 12.10 21.01 11.08ZM23.10 9.05Q22.75 9.50 22.75 10.20Q22.75 10.90 22.88 11.27L22.88 11.27L25.13 10.13Q25.13 9.47 24.81 9.03Q24.49 8.59 24.01 8.59L24.01 8.59Q23.44 8.59 23.10 9.05ZM27.95 14.43L27.95 14.43L27.95 14.01Q27.95 13.80 28.15 13.80L28.15 13.80L28.18 13.80Q28.68 13.80 28.94 13.43Q29.20 13.06 29.20 12.47L29.20 12.47L29.20 10.71Q29.20 10.37 29.18 10.14Q29.16 9.92 29.08 9.67Q29.00 9.41 28.83 9.27Q28.65 9.13 28.38 9.10L28.38 9.10Q28.20 9.08 28.21 8.92L28.21 8.92L28.21 8.44Q28.21 8.29 28.41 8.26L28.41 8.26Q29.31 8.11 30.06 7.81Q30.82 7.50 31.19 7.24L31.19 7.24Q31.23 7.21 31.25 7.21L31.25 7.21L31.28 7.21Q31.29 7.21 31.29 7.23L31.29 7.23L30.97 9.11Q31.34 8.32 32.00 7.89Q32.66 7.46 33.43 7.46L33.43 7.46Q34.12 7.46 34.57 7.84Q35.01 8.22 35.01 8.91L35.01 8.91Q35.01 9.28 34.95 9.49Q34.88 9.70 34.64 9.80L34.64 9.80L33.33 10.34Q33.27 10.36 33.21 10.36L33.21 10.36Q33.08 10.36 33.08 10.23L33.08 10.23Q33.08 10.16 33.11 10.10L33.11 10.10Q33.24 9.79 33.24 9.41L33.24 9.41Q33.24 9.04 33.06 8.86Q32.87 8.68 32.57 8.68L32.57 8.68Q32.14 8.68 31.75 9.06Q31.36 9.44 31.17 9.89L31.17 9.89L31.17 12.47Q31.17 13.06 31.44 13.43Q31.71 13.80 32.20 13.80L32.20 13.80L32.22 13.80Q32.44 13.80 32.44 14.01L32.44 14.01L32.44 14.43Q32.44 14.64 32.22 14.64L32.22 14.64L28.15 14.64Q27.95 14.64 27.95 14.43ZM35.32 14.43L35.32 14.43L35.32 14.01Q35.32 13.80 35.53 13.80L35.53 13.80L35.56 13.80Q36.05 13.80 36.32 13.43Q36.58 13.06 36.58 12.47L36.58 12.47L36.58 10.71Q36.58 10.37 36.56 10.14Q36.53 9.92 36.46 9.67Q36.38 9.41 36.20 9.27Q36.03 9.13 35.75 9.10L35.75 9.10Q35.57 9.08 35.59 8.92L35.59 8.92L35.59 8.44Q35.59 8.29 35.79 8.26L35.79 8.26Q36.68 8.11 37.44 7.81Q38.20 7.50 38.56 7.24L38.56 7.24Q38.61 7.21 38.62 7.21L38.62 7.21L38.66 7.21Q38.67 7.21 38.67 7.23L38.67 7.23L38.34 9.11Q38.72 8.32 39.38 7.89Q40.04 7.46 40.80 7.46L40.80 7.46Q41.49 7.46 41.94 7.84Q42.39 8.22 42.39 8.91L42.39 8.91Q42.39 9.28 42.32 9.49Q42.25 9.70 42.02 9.80L42.02 9.80L40.71 10.34Q40.65 10.36 40.58 10.36L40.58 10.36Q40.46 10.36 40.46 10.23L40.46 10.23Q40.46 10.16 40.48 10.10L40.48 10.10Q40.61 9.79 40.61 9.41L40.61 9.41Q40.61 9.04 40.43 8.86Q40.25 8.68 39.95 8.68L39.95 8.68Q39.51 8.68 39.12 9.06Q38.73 9.44 38.55 9.89L38.55 9.89L38.55 12.47Q38.55 13.06 38.81 13.43Q39.08 13.80 39.57 13.80L39.57 13.80L39.60 13.80Q39.81 13.80 39.81 14.01L39.81 14.01L39.81 14.43Q39.81 14.64 39.60 14.64L39.60 14.64L35.53 14.64Q35.32 14.64 35.32 14.43ZM42.73 11.13L42.73 11.13Q42.73 10.19 43.00 9.47Q43.27 8.75 43.74 8.32Q44.20 7.90 44.78 7.68Q45.35 7.46 46.01 7.46L46.01 7.46Q47.38 7.46 48.28 8.28L48.28 8.28Q48.44 8.21 48.58 8.15Q48.72 8.08 48.85 8.01Q48.97 7.94 49.05 7.90Q49.14 7.85 49.25 7.78Q49.36 7.71 49.39 7.69Q49.43 7.66 49.54 7.58Q49.65 7.50 49.66 7.49L49.66 7.49Q49.70 7.46 49.72 7.46L49.72 7.46L49.76 7.46Q49.77 7.46 49.77 7.49L49.77 7.49L49.77 12.05Q49.78 12.34 49.81 12.54Q49.85 12.75 49.93 12.95Q50.02 13.15 50.19 13.27Q50.35 13.39 50.60 13.42L50.60 13.42Q50.78 13.44 50.76 13.60L50.76 13.60L50.76 14.08Q50.76 14.26 50.56 14.26L50.56 14.26Q49.92 14.26 49.40 14.35Q48.88 14.44 48.64 14.53Q48.40 14.62 47.98 14.80L47.98 14.80Q47.93 14.83 47.87 14.83L47.87 14.83L47.83 14.83Q47.81 14.83 47.81 14.78L47.81 14.78L47.97 13.54Q47.90 13.72 47.77 13.90Q47.64 14.09 47.40 14.31Q47.15 14.54 46.75 14.68Q46.34 14.83 45.83 14.83L45.83 14.83Q45.44 14.83 45.02 14.71Q44.61 14.59 44.19 14.30Q43.78 14.01 43.46 13.60Q43.13 13.19 42.93 12.55Q42.73 11.91 42.73 11.13ZM44.54 10.68L44.54 10.68Q44.54 12.01 45.07 12.80Q45.60 13.59 46.47 13.59L46.47 13.59Q46.76 13.59 47.01 13.49Q47.25 13.40 47.39 13.27Q47.54 13.13 47.64 13.00Q47.74 12.86 47.78 12.76L47.78 12.76L47.82 12.67L47.82 9.86Q47.77 9.61 47.68 9.39Q47.58 9.16 47.41 8.92Q47.24 8.68 46.95 8.54Q46.65 8.39 46.26 8.39Q45.87 8.39 45.56 8.52Q45.25 8.65 45.07 8.87Q44.88 9.08 44.75 9.38Q44.63 9.68 44.58 9.99Q44.54 10.31 44.54 10.68Z"></path></g><!----><!----></svg>